<svg width="207" height="236" viewBox="0 0 207 236" fill="none" xmlns="http://www.w3.org/2000/svg">
<path d="M187.577 119.728C176.206 115.181 161.156 112.676 145.197 112.676C137.734 112.66 130.282 113.238 122.908 114.402V27.4005C122.908 19.7767 116.134 12.8668 103.835 7.94777C92.4635 3.39816 77.4143 0.895874 61.4573 0.895874C45.4982 0.895874 30.4469 3.39816 19.0729 7.94777C6.77433 12.8689 0 19.7767 0 27.4005V167.199C0 174.822 6.77433 181.73 19.0729 186.649C30.4448 191.199 45.494 193.703 61.451 193.703C68.9161 193.722 76.3708 193.144 83.742 191.973V209.08C83.742 216.702 90.5164 223.612 102.815 228.531C114.187 233.08 129.236 235.583 145.193 235.583C161.15 235.583 176.201 233.078 187.573 228.531C199.874 223.612 206.646 216.702 206.646 209.08V139.181C206.655 131.557 199.878 124.649 187.577 119.728ZM61.4531 7.30498C93.891 7.30498 116.497 17.8964 116.497 27.4005C116.497 36.9025 93.891 47.4939 61.4531 47.4939C29.0152 47.4939 6.41119 36.9025 6.41119 27.4005C6.41119 17.8964 29.0173 7.30498 61.4531 7.30498ZM6.41119 39.5321C9.55418 42.2702 13.8054 44.7432 19.0729 46.8511C30.4448 51.4007 45.494 53.9051 61.451 53.9051C77.4081 53.9051 92.4593 51.4007 103.831 46.8511C109.101 44.7453 113.352 42.2702 116.493 39.5321V50.6995C116.493 60.2036 93.8868 70.7929 61.4489 70.7929C29.0111 70.7929 6.41119 60.2036 6.41119 50.6995V39.5321ZM6.41119 62.8311C9.55418 65.5692 13.8054 68.0423 19.0729 70.1522C30.4448 74.6997 45.494 77.2041 61.451 77.2041C77.4081 77.2041 92.4593 74.6976 103.831 70.1522C109.101 68.0423 113.352 65.5692 116.493 62.8311V73.9985C116.493 83.5026 93.8868 94.0919 61.4489 94.0919C29.0111 94.0919 6.41119 83.5026 6.41119 73.9985V62.8311ZM6.41119 86.1322C9.55418 88.8682 13.8054 91.3433 19.0729 93.4512C30.4448 97.9987 45.494 100.503 61.451 100.503C77.4081 100.503 92.4593 97.9987 103.831 93.4512C109.101 91.3433 113.352 88.8703 116.493 86.1322V97.2975C116.493 106.802 93.8868 117.391 61.4489 117.391C29.0111 117.391 6.41119 106.802 6.41119 97.2975V86.1322ZM83.7441 185.476C76.3792 186.708 68.9224 187.315 61.4531 187.292C29.0173 187.29 6.41119 176.701 6.41119 167.199V156.033C9.55418 158.769 13.8054 161.245 19.0729 163.352C30.4448 167.9 45.494 170.404 61.451 170.404C68.9161 170.423 76.3708 169.845 83.742 168.674L83.7441 185.476ZM83.7441 162.175C76.3792 163.407 68.9224 164.016 61.4531 163.991C29.0173 163.993 6.41119 153.402 6.41119 143.898V132.73C9.55418 135.468 13.8054 137.941 19.0729 140.049C30.4448 144.599 45.494 147.103 61.451 147.103C68.9161 147.122 76.3708 146.542 83.742 145.371L83.7441 162.175ZM83.7525 138.874C76.3833 140.108 68.9245 140.715 61.4531 140.692C29.0173 140.692 6.41119 130.101 6.41119 120.596V109.431C9.55418 112.167 13.8054 114.642 19.0729 116.75C30.4448 121.3 45.494 123.802 61.451 123.802C77.4081 123.802 92.4593 121.298 103.831 116.75C109.101 114.642 113.352 112.169 116.493 109.431V115.617C111.831 116.615 107.256 117.992 102.815 119.73C90.6833 124.585 83.934 131.374 83.7525 138.874ZM200.243 209.08C200.243 218.584 177.637 229.174 145.199 229.174C112.761 229.174 90.1553 218.584 90.1553 209.08V197.913C93.3004 200.651 97.5516 203.124 102.819 205.234C114.189 209.781 129.24 212.286 145.197 212.286C161.154 212.286 176.206 209.779 187.575 205.234C192.845 203.124 197.098 200.651 200.237 197.913L200.243 209.08ZM200.243 185.779C200.243 195.283 177.637 205.875 145.199 205.875C112.761 205.875 90.1553 195.283 90.1553 185.779V174.614C93.3004 177.352 97.5516 179.825 102.819 181.933C114.189 186.482 129.24 188.985 145.197 188.985C161.154 188.985 176.206 186.48 187.575 181.933C192.845 179.825 197.098 177.352 200.237 174.614L200.243 185.779ZM200.243 162.48C200.243 171.984 177.637 182.573 145.199 182.573C112.761 182.573 90.1553 171.984 90.1553 162.48V151.315C93.3004 154.053 97.5516 156.526 102.819 158.634C114.189 163.181 129.24 165.686 145.197 165.686C161.154 165.686 176.206 163.181 187.575 158.634C192.845 156.526 197.098 154.053 200.237 151.315L200.243 162.48ZM145.199 159.274C112.761 159.274 90.1553 148.685 90.1553 139.181C90.1553 129.677 112.761 119.088 145.199 119.088C177.637 119.088 200.243 129.677 200.243 139.181C200.243 148.685 177.635 159.274 145.197 159.274H145.199Z" fill="white" fill-opacity="0.06"/>
</svg>
