<svg width="21" height="25" viewBox="0 0 21 25" fill="none" xmlns="http://www.w3.org/2000/svg">
<path d="M16.7501 10.4167H6.33341C6.10341 10.4167 5.91675 10.6029 5.91675 10.8334C5.91675 11.0638 6.10341 11.25 6.33341 11.25H16.7501C16.9801 11.25 17.1667 11.0638 17.1667 10.8334C17.1667 10.6029 16.9801 10.4167 16.7501 10.4167Z" fill="#42A0EB"/>
<path d="M6.33341 7.91665H10.5001C10.7301 7.91665 10.9167 7.7304 10.9167 7.49998C10.9167 7.26956 10.7301 7.08331 10.5001 7.08331H6.33341C6.10341 7.08331 5.91675 7.26956 5.91675 7.49998C5.91675 7.7304 6.10341 7.91665 6.33341 7.91665Z" fill="#42A0EB"/>
<path d="M16.7501 13.75H6.33341C6.10341 13.75 5.91675 13.9362 5.91675 14.1667C5.91675 14.3971 6.10341 14.5833 6.33341 14.5833H16.7501C16.9801 14.5833 17.1667 14.3971 17.1667 14.1667C17.1667 13.9362 16.9801 13.75 16.7501 13.75Z" fill="#42A0EB"/>
<path d="M16.7501 17.0833H6.33341C6.10341 17.0833 5.91675 17.2696 5.91675 17.5C5.91675 17.7304 6.10341 17.9166 6.33341 17.9166H16.7501C16.9801 17.9166 17.1667 17.7304 17.1667 17.5C17.1667 17.2696 16.9801 17.0833 16.7501 17.0833Z" fill="#42A0EB"/>
<path d="M16.7501 20.4167H6.33341C6.10341 20.4167 5.91675 20.6029 5.91675 20.8334C5.91675 21.0638 6.10341 21.25 6.33341 21.25H16.7501C16.9801 21.25 17.1667 21.0638 17.1667 20.8334C17.1667 20.6029 16.9801 20.4167 16.7501 20.4167Z" fill="#42A0EB"/>
<path d="M18.4167 6.0775V0H0.5V22.9167H2.58333V25H20.5V8.16083L18.4167 6.0775ZM14.6667 3.50583L18.4167 7.25583L19.0775 7.91667H14.6667V3.50583ZM1.33333 22.0833V0.833333H17.5833V5.24417L14.4225 2.08333H2.58333V22.0833H1.33333ZM3.41667 24.1667V22.9167V2.91667H13.8333V8.75H19.6667V24.1667H3.41667Z" fill="#42A0EB"/>
</svg>
