<svg width="13" height="24" viewBox="0 0 13 24" fill="none" xmlns="http://www.w3.org/2000/svg">
<path d="M11.9667 0.933741L8.98413 0.928955C5.63329 0.928955 3.46784 3.15064 3.46784 6.58929V9.19908H0.468983C0.209846 9.19908 0 9.40916 0 9.6683V13.4496C0 13.7087 0.210085 13.9186 0.468983 13.9186H3.46784V23.46C3.46784 23.7191 3.67768 23.929 3.93682 23.929H7.84947C8.10861 23.929 8.31846 23.7189 8.31846 23.46V13.9186H11.8248C12.084 13.9186 12.2938 13.7087 12.2938 13.4496L12.2952 9.6683C12.2952 9.54387 12.2457 9.42472 12.1579 9.33666C12.0701 9.24861 11.9504 9.19908 11.826 9.19908H8.31846V6.98672C8.31846 5.92338 8.57185 5.38357 9.95702 5.38357L11.9662 5.38285C12.2251 5.38285 12.435 5.17277 12.435 4.91387V1.40272C12.435 1.14406 12.2254 0.934219 11.9667 0.933741Z" fill="#42A0EB"/>
</svg>
