<svg width="26" height="22" viewBox="0 0 26 22" fill="none" xmlns="http://www.w3.org/2000/svg">
<path d="M23.0027 2.01372C21.6923 0.721802 19.9576 0.0156914 18.1061 0.0156914C16.2547 0.0156914 14.5146 0.727032 13.2043 2.01895L12.5199 2.69368L11.825 2.00849C10.5146 0.716572 8.76926 0 6.9178 0C5.07165 0 3.33159 0.711341 2.02655 1.99803C0.716209 3.28995 -0.00527599 5.00554 2.90489e-05 6.83097C2.90489e-05 8.65639 0.726819 10.3668 2.03716 11.6587L12 21.4815C12.138 21.6174 12.3236 21.6907 12.504 21.6907C12.6844 21.6907 12.8701 21.6227 13.008 21.4867L22.9921 11.6796C24.3024 10.3877 25.0239 8.67208 25.0239 6.84666C25.0292 5.02123 24.313 3.30564 23.0027 2.01372ZM21.9841 10.6806L12.504 19.9908L3.04512 10.6649C2.00533 9.63972 1.43239 8.2798 1.43239 6.83097C1.43239 5.38213 2.00003 4.02222 3.03982 3.00228C4.0743 1.98234 5.45361 1.41745 6.9178 1.41745C8.38729 1.41745 9.77191 1.98234 10.8117 3.00751L12.0106 4.18959C12.2918 4.4668 12.7427 4.4668 13.0239 4.18959L14.2122 3.01797C15.252 1.9928 16.6366 1.42791 18.1008 1.42791C19.565 1.42791 20.9443 1.9928 21.9841 3.01274C23.0239 4.03791 23.5915 5.39782 23.5915 6.84666C23.5968 8.29549 23.0239 9.65541 21.9841 10.6806Z" fill="#42A0EB"/>
</svg>
