<svg width="23" height="24" viewBox="0 0 23 24" fill="none" xmlns="http://www.w3.org/2000/svg">
<path d="M15.8125 0.928955H7.1875C3.21856 0.928955 0 4.14752 0 8.11646V16.7415C0 20.7104 3.21856 23.929 7.1875 23.929H15.8125C19.7814 23.929 23 20.7104 23 16.7415V8.11646C23 4.14752 19.7814 0.928955 15.8125 0.928955ZM20.8438 16.7415C20.8438 19.5158 18.5869 21.7727 15.8125 21.7727H7.1875C4.41313 21.7727 2.15625 19.5158 2.15625 16.7415V8.11646C2.15625 5.34208 4.41313 3.08521 7.1875 3.08521H15.8125C18.5869 3.08521 20.8438 5.34208 20.8438 8.11646V16.7415Z" fill="#42A0EB"/>
<path d="M11.5 6.67896C8.32456 6.67896 5.75 9.25352 5.75 12.429C5.75 15.6044 8.32456 18.179 11.5 18.179C14.6754 18.179 17.25 15.6044 17.25 12.429C17.25 9.25352 14.6754 6.67896 11.5 6.67896ZM11.5 16.0227C9.51912 16.0227 7.90625 14.4098 7.90625 12.429C7.90625 10.4466 9.51912 8.83521 11.5 8.83521C13.4809 8.83521 15.0938 10.4466 15.0938 12.429C15.0938 14.4098 13.4809 16.0227 11.5 16.0227Z" fill="#42A0EB"/>
<path d="M17.6807 7.0143C18.1039 7.0143 18.4469 6.67127 18.4469 6.24812C18.4469 5.82497 18.1039 5.48193 17.6807 5.48193C17.2576 5.48193 16.9146 5.82497 16.9146 6.24812C16.9146 6.67127 17.2576 7.0143 17.6807 7.0143Z" fill="#42A0EB"/>
</svg>
