<svg width="196" height="50" viewBox="0 0 196 50" fill="none" xmlns="http://www.w3.org/2000/svg">
<path d="M40.6646 4.99475H35.9521V12.6705H40.6646V4.99475Z" fill="#429FEB"/>
<path d="M24.417 0V6.46376L42.9754 16.949V34.2469L40.4646 35.514C42.4114 29.95 41.6109 24.3126 37.7536 20.6583C35.0426 18.0875 29.5842 16.6919 25.5269 16.8756V49.8922L48.8705 38.5071V13.7171L24.417 0ZM36.571 32.5759C35.4975 35.7711 33.0958 38.1032 30.494 38.8009V22.1641C31.2218 22.109 31.9495 22.1641 32.6591 22.3845C36.3344 23.4679 38.0811 28.0402 36.571 32.5759Z" fill="#4775B8"/>
<path d="M23.38 16.6736C23.3436 16.6736 23.3254 16.6736 23.289 16.6919C21.3786 17.0776 19.45 17.4448 17.5396 17.8304C17.394 17.8672 17.3212 17.9223 17.2848 18.0508C16.3933 20.8603 15.4836 23.6699 14.592 26.4794C14.2463 27.5628 13.9006 28.6279 13.5549 29.7113C13.5367 29.748 13.5186 29.7847 13.4822 29.8765C12.4633 26.3141 11.4626 22.7884 10.4437 19.2444C9.42478 19.4464 8.44227 19.6484 7.42338 19.8504C7.42338 19.9422 7.42338 20.0524 7.42338 20.1625C7.40518 25.1205 7.38699 30.0785 7.36879 35.0549L5.85865 34.2837V16.9857L24.4171 6.50049V0L0 13.7171V38.5255L23.38 49.9289V16.6736ZM18.1218 40.4352L9.86145 36.2669C9.86145 32.9248 9.86145 29.6011 9.86145 26.2958C9.89784 26.2958 9.91603 26.2958 9.95242 26.2958C10.0434 26.6814 10.1526 27.067 10.2435 27.4526C10.9167 30.0969 11.5717 32.7412 12.2267 35.4038C12.2631 35.5874 12.3541 35.6609 12.536 35.7343C13.2456 35.973 13.9552 36.2485 14.7012 36.5056C15.8293 33.2186 16.9755 29.9316 18.1036 26.663C18.1218 26.663 18.14 26.663 18.1582 26.663C18.1582 26.7181 18.1764 26.7732 18.1764 26.8467C18.1582 31.3639 18.14 35.8996 18.1218 40.4352Z" fill="#429FEB"/>
<path d="M105.521 31.2874H107.205C108.304 31.2874 109.094 31.4594 109.575 31.8035C110.262 32.2853 110.605 33.008 110.674 33.9371C110.708 34.6254 110.502 35.2448 110.056 35.7266C109.609 36.2428 109.059 36.5181 108.407 36.6214L111.361 40.7165H109.953L107.17 36.759H106.689V40.7165H105.521V31.2874ZM106.689 32.3197V35.7266C107.685 35.7266 108.407 35.589 108.853 35.3481C109.3 35.1072 109.54 34.6254 109.54 33.9371C109.54 33.4554 109.369 33.0424 108.991 32.7327C108.613 32.423 107.96 32.2509 107.067 32.2509H106.689V32.3197Z" fill="#424243"/>
<path d="M114.178 31.2874H119.227V32.3542H115.346V35.004H119.124V36.0708H115.346V39.6153H119.227V40.6821H114.178V31.2874Z" fill="#424243"/>
<path d="M126.028 30.8744L130.528 40.7165H129.257L128.192 38.342H123.898L122.833 40.7165H121.562L126.028 30.8744ZM126.028 33.4554L124.379 37.2752H127.711L126.028 33.4554Z" fill="#424243"/>
<path d="M133.138 31.2874H134.306V39.6153H137.157V40.6821H133.138V31.2874Z" fill="#424243"/>
<path d="M140.833 32.3542H138.6V31.2874H144.233V32.3542H142.001V40.6821H140.833V32.3542Z" fill="#424243"/>
<path d="M149.077 36.5868L146.02 31.2528H147.359L149.661 35.2791L151.962 31.2528H153.302L150.244 36.5868V40.682H149.077V36.5868Z" fill="#424243"/>
<path d="M69.9357 19.932L74.6416 9.12634L77.4239 23.4077H75.6377L74.0576 14.2883L69.9357 23.7174L65.8138 14.2539L64.1994 23.4077H62.4819L65.2642 9.12634L69.9357 19.932Z" fill="#424243"/>
<path d="M85.1868 9.09094L91.7132 23.3723H89.8583L88.3126 19.931H82.0954L80.5497 23.3723H78.6948L85.1868 9.09094ZM85.1868 12.8764L82.7824 18.4169H87.6256L85.1868 12.8764Z" fill="#424243"/>
<path d="M94.0147 9.71033H96.4535C98.0679 9.71033 99.2014 9.95122 99.8884 10.4674C100.885 11.1901 101.4 12.2225 101.468 13.5646C101.503 14.597 101.194 15.4573 100.575 16.18C99.9571 16.9026 99.1671 17.35 98.1709 17.4532L102.465 23.4067H100.404L96.3504 17.6253H95.6291V23.4067H93.9116V9.71033H94.0147ZM95.6978 11.2245V16.18C97.1405 16.18 98.2053 16.0079 98.8579 15.6638C99.5106 15.3196 99.854 14.6314 99.854 13.6334C99.854 12.9451 99.5793 12.3601 99.0297 11.9128C98.4801 11.4654 97.5526 11.2245 96.2474 11.2245H95.6978Z" fill="#424243"/>
<path d="M105.007 9.71033H106.724V15.6294L112.529 9.71033H114.762L108.579 15.8358L114.83 23.3723H112.529L107.377 16.9715L106.69 17.6597V23.3379H104.972V9.71033H105.007Z" fill="#424243"/>
<path d="M142.447 9.71033H145.298C146.225 9.71033 147.153 9.81357 148.011 10.0545C148.87 10.2953 149.694 10.6395 150.45 11.1901C151.206 11.7063 151.79 12.3945 152.271 13.2549C152.752 14.1152 152.958 15.1476 152.992 16.3864C153.026 17.6253 152.752 18.7609 152.236 19.8277C151.721 20.8945 150.897 21.7549 149.763 22.4087C148.63 23.0626 147.221 23.4067 145.47 23.4067H142.481V9.71033H142.447ZM144.13 11.2589V21.8237H145.16C147.118 21.8237 148.63 21.3419 149.66 20.3439C150.691 19.346 151.24 18.0727 151.206 16.4897C151.206 14.8379 150.656 13.5302 149.557 12.6354C148.458 11.7063 146.947 11.2589 144.989 11.2589H144.13Z" fill="#424243"/>
<path d="M160.824 9.09094L167.35 23.3723H165.495L163.949 19.931H157.698L156.152 23.3723H154.297L160.824 9.09094ZM160.824 12.8764L158.419 18.4169H163.263L160.824 12.8764Z" fill="#424243"/>
<path d="M166.045 9.71033H167.934L171.987 19.8277L176.075 9.71033H177.93L171.987 24.095L166.045 9.71033Z" fill="#424243"/>
<path d="M180.197 9.71033H181.914V23.3723H180.197V9.71033Z" fill="#424243"/>
<path d="M185.452 9.71033H188.303C189.231 9.71033 190.158 9.81357 191.017 10.0545C191.875 10.2953 192.7 10.6395 193.456 11.1901C194.211 11.7063 194.795 12.3945 195.276 13.2549C195.757 14.1152 195.963 15.1476 195.997 16.3864C196.032 17.6253 195.757 18.7609 195.242 19.8277C194.726 20.8945 193.902 21.7549 192.769 22.4087C191.635 23.0626 190.227 23.4067 188.475 23.4067H185.486V9.71033H185.452ZM187.17 11.2589V21.8237H188.2C190.158 21.8237 191.669 21.3419 192.7 20.3439C193.765 19.3804 194.28 18.0727 194.246 16.4897C194.246 14.8379 193.696 13.5302 192.597 12.6354C191.498 11.7063 189.986 11.2589 188.028 11.2589H187.17Z" fill="#424243"/>
<path d="M131.49 18.2104L132.314 19.0707L131.043 20.5505L132.898 22.8562H131.283L130.219 21.4452C129.291 22.512 128.261 23.0626 127.093 23.0626C126.303 23.0626 125.581 22.7873 124.929 22.2711C124.276 21.7549 123.967 21.0667 123.898 20.2408C123.864 19.5525 124.036 18.9675 124.379 18.4857C124.757 17.9695 125.41 17.4189 126.337 16.7995C125.959 16.3521 125.65 15.9736 125.478 15.6294C125.307 15.2853 125.204 14.9068 125.204 14.5282C125.169 13.9088 125.375 13.3582 125.788 12.9108C126.2 12.4634 126.818 12.257 127.539 12.257C128.295 12.257 128.879 12.4634 129.291 12.8764C129.703 13.2894 129.944 13.8055 129.944 14.425C129.944 14.9412 129.772 15.3885 129.463 15.7671C129.154 16.1456 128.673 16.5586 128.089 17.006L130.287 19.6557L131.49 18.2104ZM129.429 20.5161C129.257 20.344 128.501 19.3804 127.127 17.6942C126.509 18.1072 126.028 18.4857 125.65 18.8298C125.272 19.174 125.101 19.5869 125.101 20.0687C125.101 20.5505 125.307 20.9979 125.719 21.3764C126.131 21.7549 126.578 21.927 127.058 21.8926C127.78 21.8926 128.57 21.4108 129.429 20.5161ZM127.402 16.1112C127.952 15.7327 128.329 15.423 128.536 15.1477C128.742 14.9068 128.81 14.6315 128.81 14.3562C128.81 13.9432 128.673 13.6679 128.432 13.4958C128.192 13.3238 127.917 13.2549 127.608 13.2549C127.299 13.2894 127.024 13.3926 126.818 13.5647C126.612 13.7367 126.475 14.012 126.475 14.2873C126.406 14.7691 126.715 15.3541 127.402 16.1112Z" fill="#424243"/>
</svg>
