<svg width="22" height="23" viewBox="0 0 22 23" fill="none" xmlns="http://www.w3.org/2000/svg">
<path d="M21.8049 21.7706L16.4585 16.4243C17.8927 14.7755 18.761 12.6243 18.761 10.2731C18.761 5.09746 14.5512 0.892578 9.38049 0.892578C4.20488 0.892578 0 5.10233 0 10.2731C0 15.4438 4.20976 19.6536 9.38049 19.6536C11.7317 19.6536 13.8829 18.7853 15.5317 17.3511L20.878 22.6975C21.0049 22.8243 21.1756 22.8926 21.3415 22.8926C21.5073 22.8926 21.678 22.8292 21.8049 22.6975C22.0585 22.4438 22.0585 22.0243 21.8049 21.7706ZM1.31219 10.2731C1.31219 5.82429 4.93171 2.20965 9.37561 2.20965C13.8244 2.20965 17.439 5.82916 17.439 10.2731C17.439 14.717 13.8244 18.3414 9.37561 18.3414C4.93171 18.3414 1.31219 14.7218 1.31219 10.2731Z" fill="#2C61AA"/>
</svg>
